<svg width="571" height="571" viewBox="0 0 571 571" fill="none" xmlns="http://www.w3.org/2000/svg">
<path d="M285.215 0L285.27 284.934L394.362 21.7106L285.373 284.978L486.891 83.5375L285.452 285.056L548.719 176.067L285.495 285.159L570.429 285.215L285.495 285.27L548.719 394.362L285.452 285.373L486.891 486.891L285.373 285.452L394.362 548.719L285.27 285.495L285.215 570.429L285.159 285.495L176.067 548.719L285.056 285.452L83.5375 486.891L284.978 285.373L21.7106 394.362L284.934 285.27L0 285.215L284.934 285.159L21.7106 176.067L284.978 285.056L83.5375 83.5375L285.056 284.978L176.067 21.7106L285.159 284.934L285.215 0Z" fill="#BD2235" stroke="#E5001A" stroke-width="9"/>
</svg>
