<svg width="29" height="29" viewBox="0 0 29 29" fill="none" xmlns="http://www.w3.org/2000/svg">
<path fill-rule="evenodd" clip-rule="evenodd" d="M28.9989 14.4989C28.9989 14.4989 29.1709 7.83618 25.1673 3.83265C21.1638 -0.170817 14.5011 0.00107497 14.5011 0.00107497C14.5011 0.00107497 14.5001 0.0353918 14.5 0.100561C14.5 0.0730381 14.4997 0.0510195 14.4996 0.0347607C14.4993 0.0125273 14.4989 0.00107497 14.4989 0.00107497C14.4989 0.00107497 7.83618 -0.170817 3.83265 3.83265C-0.170817 7.83618 0.00107497 14.4989 0.00107497 14.4989C0.00107497 14.4989 6.66389 14.6708 10.6673 10.6673C14.3267 7.00808 14.4977 1.12712 14.5 0.142906C14.5024 1.12712 14.6735 7.00808 18.3327 10.6673C22.3362 14.6708 28.9989 14.4989 28.9989 14.4989ZM3.83265 25.1673C-0.170817 21.1638 0.00107497 14.5011 0.00107497 14.5011C0.00107497 14.5011 6.66389 14.3292 10.6673 18.3327C14.3267 21.9919 14.4977 27.8729 14.5 28.8571C14.5024 27.8729 14.6735 21.9919 18.3327 18.3327C22.3362 14.3292 28.9989 14.5011 28.9989 14.5011C28.9989 14.5011 29.1709 21.1638 25.1673 25.1673C21.1638 29.1708 14.5011 28.9989 14.5011 28.9989C14.5011 28.9989 14.5001 28.9646 14.5 28.8994C14.4999 28.9646 14.4989 28.9989 14.4989 28.9989C14.4989 28.9989 7.83618 29.1708 3.83265 25.1673Z" fill="#FE2943"/>
</svg>
