<svg width="231" height="50" viewBox="0 0 231 50" fill="none" xmlns="http://www.w3.org/2000/svg">
<path d="M111.134 10.4254C112.884 6.43921 118.539 6.43921 120.29 10.4254L121.22 12.5445C121.915 14.1271 123.378 15.2386 125.089 15.4837L127.887 15.8844C131.929 16.4634 133.61 21.382 130.768 24.3141L128.198 26.9649C127.089 28.1092 126.591 29.7139 126.859 31.285L127.425 34.6065C128.14 38.8014 123.621 41.915 119.956 39.7532L118.252 38.7481C116.684 37.8237 114.739 37.8237 113.172 38.7481L111.467 39.7532C107.802 41.915 103.284 38.8014 103.998 34.6065L104.564 31.285C104.832 29.7139 104.335 28.1092 103.225 26.9649L100.656 24.3141C97.8132 21.382 99.4942 16.4634 103.537 15.8844L106.334 15.4837C108.045 15.2386 109.508 14.1271 110.203 12.5445L111.134 10.4254Z" fill="#F0F0F0"/>
<path d="M65.1209 10.4254C66.8714 6.43921 72.5266 6.43921 74.277 10.4254L75.2076 12.5445C75.9025 14.1271 77.3656 15.2386 79.0767 15.4837L81.874 15.8844C85.9165 16.4634 87.5975 21.382 84.755 24.3141L82.1852 26.9649C81.0759 28.1092 80.5786 29.7139 80.8463 31.285L81.4123 34.6065C82.1271 38.8014 77.6087 41.915 73.9433 39.7532L72.239 38.7481C70.6718 37.8237 68.7262 37.8237 67.1589 38.7481L65.4547 39.7532C61.7893 41.915 57.2709 38.8014 57.9857 34.6065L58.5517 31.285C58.8194 29.7139 58.3221 28.1092 57.2127 26.9649L54.6429 24.3141C51.8005 21.382 53.4815 16.4634 57.5239 15.8844L60.3213 15.4837C62.0323 15.2386 63.4954 14.1271 64.1904 12.5445L65.1209 10.4254Z" fill="#F0F0F0"/>
<path d="M19.1082 10.4254C20.8587 6.43921 26.5139 6.43921 28.2643 10.4254L29.1949 12.5445C29.8898 14.1271 31.3529 15.2386 33.064 15.4837L35.8613 15.8844C39.9038 16.4634 41.5848 21.382 38.7423 24.3141L36.1726 26.9649C35.0632 28.1092 34.5659 29.7139 34.8336 31.285L35.3996 34.6065C36.1144 38.8014 31.596 41.915 27.9306 39.7532L26.2263 38.7481C24.6591 37.8237 22.7135 37.8237 21.1463 38.7481L19.442 39.7532C15.7766 41.915 11.2582 38.8014 11.973 34.6065L12.539 31.285C12.8067 29.7139 12.3094 28.1092 11.2 26.9649L8.63024 24.3141C5.78779 21.382 7.46882 16.4634 11.5113 15.8844L14.3086 15.4837C16.0196 15.2386 17.4827 14.1271 18.1777 12.5445L19.1082 10.4254Z" fill="#F0F0F0"/>
<path d="M157.146 10.4254C158.897 6.43921 164.552 6.43921 166.302 10.4254L167.233 12.5445C167.928 14.1271 169.391 15.2386 171.102 15.4837L173.899 15.8844C177.942 16.4634 179.623 21.382 176.78 24.3141L174.211 26.9649C173.101 28.1092 172.604 29.7139 172.872 31.285L173.438 34.6065C174.152 38.8014 169.634 41.915 165.969 39.7532L164.264 38.7481C162.697 37.8237 160.752 37.8237 159.184 38.7481L157.48 39.7532C153.815 41.915 149.296 38.8014 150.011 34.6065L150.577 31.285C150.845 29.7139 150.347 28.1092 149.238 26.9649L146.668 24.3141C143.826 21.382 145.507 16.4634 149.549 15.8844L152.347 15.4837C154.058 15.2386 155.521 14.1271 156.216 12.5445L157.146 10.4254Z" fill="#F0F0F0"/>
<path d="M203.159 10.4254C204.909 6.43921 210.565 6.43921 212.315 10.4254L213.246 12.5445C213.941 14.1271 215.404 15.2386 217.115 15.4837L219.912 15.8844C223.955 16.4634 225.636 21.382 222.793 24.3141L220.223 26.9649C219.114 28.1092 218.617 29.7139 218.884 31.285L219.45 34.6065C220.165 38.8014 215.647 41.915 211.981 39.7532L210.277 38.7481C208.71 37.8237 206.764 37.8237 205.197 38.7481L203.493 39.7532C199.827 41.915 195.309 38.8014 196.024 34.6065L196.59 31.285C196.857 29.7139 196.36 28.1092 195.251 26.9649L192.681 24.3141C189.839 21.382 191.52 16.4634 195.562 15.8844L198.359 15.4837C200.07 15.2386 201.534 14.1271 202.228 12.5445L203.159 10.4254Z" fill="#F0F0F0"/>
</svg>
